# xmcd CD database file
#
# Track frame offsets:
#	183
#	23608
#	32740
#	50635
#	67900
#	84973
#	104793
#	121075
#	139405
#	154505
#	171778
#	189793
#	219483
#	231765
#	248788
#
# Disc length: 3509 seconds
#
# Revision: 0
# Processed by: cddbd v1.4PL0 Copyright (c) Steve Scherf et al.
# Submitted via: Feurio! 1.65 - http://www.feurio.com
#
DISCID=c00db30f
DTITLE=Paul Orta - Cruisin' For A Bruising
DYEAR=1900
DGENRE=Blues
TTITLE0=Tear Drops
TTITLE1=Hey Hey Little Monkey
TTITLE2=Cruisin' For A Bruising
TTITLE3=Buenos Noches
TTITLE4=Your Driving Me Crazy
TTITLE5=A Nickel Is A Nickel
TTITLE6=You Better Believe It
TTITLE7=Harmonica Convergance
TTITLE8=She's So Fine
TTITLE9=The Moon Is Rising
TTITLE10=Love Me Or Leave Me
TTITLE11=Love Bird
TTITLE12=Let's Make Love Again
TTITLE13=Your My Hoochie Coochie Girl
TTITLE14=Phone On The Wall
EXTD=ARD New Rose Rose 243
EXTT0=
EXTT1=
EXTT2=
EXTT3=
EXTT4=
EXTT5=
EXTT6=
EXTT7=
EXTT8=
EXTT9=
EXTT10=
EXTT11=
EXTT12=
EXTT13=
EXTT14=
PLAYORDER=
